<svg width="18" height="11" viewBox="0 0 18 11" fill="none" xmlns="http://www.w3.org/2000/svg">
<path d="M8.63111 9.80375C8.28639 9.45902 8.28903 8.8993 8.63701 8.55785L16.1399 1.1956C16.4833 0.858685 17.0339 0.861291 17.3741 1.20144C17.7188 1.54616 17.7162 2.10589 17.3682 2.44734L9.86528 9.80959C9.52193 10.1465 8.97126 10.1439 8.63111 9.80375Z" fill="#2D2D2D"/>
<path d="M1.1713 1.12006C1.51374 0.777608 2.06896 0.777609 2.41141 1.12006L9.8561 8.56474C10.1985 8.90719 10.1985 9.46241 9.8561 9.80486C9.51365 10.1473 8.95843 10.1473 8.61599 9.80486L1.1713 2.36017C0.828848 2.01772 0.828848 1.4625 1.1713 1.12006Z" fill="#2D2D2D"/>
</svg>
