<svg width="20" height="20" viewBox="0 0 20 20" fill="none" xmlns="http://www.w3.org/2000/svg">
<g clip-path="url(#clip0_20_330)">
<mask id="mask0_20_330" style="mask-type:luminance" maskUnits="userSpaceOnUse" x="0" y="0" width="20" height="20">
<path d="M20 10C20 4.47715 15.5228 0 10 0C4.47715 0 0 4.47715 0 10C0 15.5228 4.47715 20 10 20C15.5228 20 20 15.5228 20 10Z" fill="white"/>
</mask>
<g mask="url(#mask0_20_330)">
<path fill-rule="evenodd" clip-rule="evenodd" d="M10.6667 18.6415C12.8575 18.4748 14.8207 17.4936 16.2539 16H10.6667V18.6415ZM9.33333 18.6415V16H3.74609C5.17939 17.4936 7.14252 18.4748 9.33333 18.6415ZM10.6667 14.6667H17.3043C17.9391 13.6751 18.3776 12.5457 18.5648 11.3333H10.6667V14.6667ZM9.33333 11.3333V14.6667H2.69576C2.06092 13.6751 1.62247 12.5457 1.43527 11.3333H9.33333ZM10.6667 10H18.6667C18.6667 8.8188 18.4304 7.69279 18.0024 6.66667H10.6667V10ZM9.33333 6.66667V10H1.33333C1.33333 8.8188 1.56964 7.69279 1.99755 6.66667H9.33333ZM10.6667 5.33333H17.3043C15.8768 3.10365 13.4563 1.5708 10.6667 1.35859V5.33333ZM9.33333 1.35859V5.33333H2.69576C4.12325 3.10365 6.54372 1.5708 9.33333 1.35859ZM10 20C15.5228 20 20 15.5228 20 10C20 4.47715 15.5228 0 10 0C4.47715 0 0 4.47715 0 10C0 15.5228 4.47715 20 10 20Z" fill="#2C2C2C"/>
<path fill-rule="evenodd" clip-rule="evenodd" d="M8.63888 19.3516C7.60707 19.7712 6.49165 20 5.33329 20C0.253633 20 -4.00004 15.6001 -4.00004 10C-4.00004 4.39985 0.253633 1.3113e-06 5.33329 1.3113e-06C6.49165 1.3113e-06 7.60707 0.228803 8.63888 0.648463C5.83747 2.69087 3.99996 6.11744 3.99996 10C3.99996 13.8825 5.83747 17.3092 8.63888 19.3516ZM9.99996 18.6585C7.22871 16.9416 5.33329 13.7383 5.33329 10C5.33329 6.26175 7.22871 3.05835 9.99996 1.34147C12.7712 3.05835 14.6666 6.26175 14.6666 10C14.6666 13.7383 12.7712 16.9416 9.99996 18.6585ZM9.99996 20.194C8.59036 20.9239 7.00684 21.3333 5.33329 21.3333C-0.557745 21.3333 -5.33337 16.2592 -5.33337 10C-5.33337 3.74078 -0.557745 -1.33333 5.33329 -1.33333C7.00684 -1.33333 8.59036 -0.923835 9.99996 -0.194001C11.4096 -0.923835 12.9931 -1.33333 14.6666 -1.33333C20.5577 -1.33333 25.3333 3.74078 25.3333 10C25.3333 16.2592 20.5577 21.3333 14.6666 21.3333C12.9931 21.3333 11.4096 20.9239 9.99996 20.194ZM11.361 0.648464C12.3929 0.228804 13.5082 1.3113e-06 14.6666 1.3113e-06C19.7462 1.3113e-06 24 4.39985 24 10C24 15.6001 19.7462 20 14.6666 20C13.5082 20 12.3929 19.7712 11.3611 19.3516C14.1625 17.3092 16 13.8825 16 10C16 6.11744 14.1625 2.69087 11.361 0.648464Z" fill="#2C2C2C"/>
</g>
</g>
<defs>
<clipPath id="clip0_20_330">
<rect width="20" height="20" fill="white"/>
</clipPath>
</defs>
</svg>
